<?xml version="1.0" standalone="no"?>
<!DOCTYPE svg PUBLIC "-//W3C//DTD SVG 20010904//EN"
 "http://www.w3.org/TR/2001/REC-SVG-20010904/DTD/svg10.dtd">
<svg version="1.0" xmlns="http://www.w3.org/2000/svg"
 width="300.000000pt" height="197.000000pt" viewBox="0 0 300.000000 197.000000"
 preserveAspectRatio="xMidYMid meet">
<metadata>
Created by potrace 1.10, written by Peter Selinger 2001-2011
</metadata>
<g transform="translate(0.000000,197.000000) scale(0.100000,-0.100000)"
fill="#000000" stroke="none">
<path d="M2037 1808 c-14 -18 -35 -53 -47 -77 -32 -63 -214 -337 -265 -396
-37 -44 -97 -126 -119 -162 -5 -9 -2 -11 8 -7 9 3 16 11 16 18 0 7 3 6 9 -2 6
-10 22 -8 75 12 37 14 97 31 132 37 49 8 75 19 105 45 48 40 59 41 93 12 26
-23 34 -46 35 -102 1 -28 2 -28 40 -22 42 6 51 -2 51 -50 0 -22 3 -24 53 -23
55 1 54 4 -5 14 -34 5 -37 8 -26 25 11 16 9 22 -7 35 -11 8 -33 18 -50 23 -23
6 -31 15 -33 37 -5 38 -47 91 -78 99 -27 7 -73 -13 -103 -45 -11 -12 -24 -19
-29 -15 -10 6 -157 -38 -176 -53 -16 -12 -66 -23 -66 -14 0 15 47 63 54 56 4
-4 4 -1 1 8 -3 8 4 24 15 36 11 12 20 25 20 28 0 3 13 19 29 36 16 16 37 45
45 62 16 31 91 142 124 183 21 25 34 48 72 123 16 31 38 66 49 75 29 26 70 14
84 -24 6 -17 14 -30 18 -30 3 0 12 -21 19 -47 6 -27 15 -55 18 -63 3 -8 6 -17
7 -20 1 -3 4 -12 7 -20 12 -33 49 -203 55 -252 3 -29 10 -55 14 -58 20 -14 33
-149 15 -156 -16 -6 -16 -34 -1 -34 46 0 40 83 -29 365 -24 99 -49 181 -54
183 -5 1 -8 11 -5 22 5 20 -38 123 -64 152 -9 10 -30 18 -49 18 -26 0 -38 -7
-57 -32z"/>
<path d="M368 1613 c7 -3 16 -2 19 1 4 3 -2 6 -13 5 -11 0 -14 -3 -6 -6z"/>
<path d="M716 1379 c-53 -42 -105 -177 -102 -266 2 -61 32 -106 94 -137 l47
-24 -3 52 c-2 28 8 112 22 186 14 74 26 146 26 160 0 51 -39 64 -84 29z m50
-45 c-3 -8 -1 -14 5 -14 6 0 9 -7 5 -15 -14 -37 -46 -222 -46 -266 l0 -49 -32
13 c-31 13 -40 23 -54 62 -9 26 -13 95 -5 95 3 0 7 17 8 37 2 40 31 113 45
113 4 0 8 5 8 12 0 7 12 22 28 34 23 19 28 20 35 8 5 -9 6 -22 3 -30z"/>
<path d="M675 1048 c10 -31 25 -47 25 -26 0 24 -11 48 -22 48 -5 0 -6 -10 -3
-22z"/>
<path d="M1556 1329 c-20 -3 -39 -9 -42 -12 -9 -9 110 4 120 13 9 9 -21 8 -78
-1z"/>
<path d="M1475 1300 c-3 -6 1 -7 9 -4 18 7 21 14 7 14 -6 0 -13 -4 -16 -10z"/>
<path d="M2240 1235 c-7 -9 -11 -18 -8 -20 3 -3 11 1 18 10 7 9 11 18 8 20 -3
3 -11 -1 -18 -10z"/>
<path d="M2040 1231 c0 -5 5 -13 10 -16 6 -3 10 -2 10 4 0 5 -4 13 -10 16 -5
3 -10 2 -10 -4z"/>
<path d="M1492 1209 c-10 -16 -8 -16 19 -9 17 5 37 6 45 3 8 -3 14 -1 14 5 0
5 -15 12 -34 14 -24 3 -37 -1 -44 -13z"/>
<path d="M2030 1196 c0 -2 9 -6 20 -9 11 -3 18 -1 14 4 -5 9 -34 13 -34 5z"/>
<path d="M1955 1170 c-3 -6 1 -7 9 -4 18 7 21 14 7 14 -6 0 -13 -4 -16 -10z"/>
<path d="M2000 1160 c-14 -4 -18 -9 -10 -10 11 -1 9 -4 -5 -10 -16 -7 -17 -9
-3 -9 9 -1 20 4 23 9 3 6 17 10 31 10 13 0 24 5 24 10 0 12 -24 12 -60 0z"/>
<path d="M1001 1149 c-1 -8 6 -24 15 -35 15 -19 15 -19 6 1 -5 11 -12 27 -15
35 -5 13 -6 13 -6 -1z"/>
<path d="M2375 1149 c10 -15 43 -30 49 -21 3 4 -8 13 -25 19 -16 6 -27 7 -24
2z"/>
<path d="M1550 1118 c-19 -17 -29 -27 -21 -23 10 6 12 4 7 -4 -5 -7 -14 -10
-21 -7 -18 7 -78 -37 -111 -82 -16 -21 -61 -68 -100 -105 -60 -56 -77 -67
-106 -67 -44 0 -162 31 -263 70 -44 17 -85 32 -92 34 -7 1 -16 5 -19 9 -10 10
-24 9 -24 -2 0 -5 17 -13 38 -19 20 -6 89 -30 152 -52 157 -56 227 -71 336
-71 82 -1 100 3 159 30 36 17 71 31 76 31 10 0 12 23 3 32 -5 5 -105 -43 -130
-63 -6 -5 -26 -9 -45 -9 -19 0 -47 0 -64 -1 -83 -5 -84 -3 -30 51 28 27 56 50
63 50 7 0 15 6 18 14 3 8 13 12 22 9 14 -4 14 -3 3 5 -12 8 -10 15 10 42 35
46 70 80 83 80 6 -1 -1 -11 -16 -23 -25 -21 -26 -23 -10 -34 15 -10 15 -13 2
-22 -12 -9 -10 -11 11 -11 25 0 45 -22 40 -44 -1 -5 5 -3 14 4 14 11 12 16
-15 40 -34 30 -39 50 -12 50 14 0 15 -2 2 -10 -13 -8 -13 -10 2 -10 9 0 26
-12 37 -26 20 -25 20 -25 33 -5 8 13 23 21 40 21 16 0 36 8 46 18 22 22 52 36
72 33 11 -1 12 0 3 7 -18 11 -68 8 -66 -5 1 -5 -13 -18 -31 -28 -33 -18 -34
-18 -70 4 -35 22 -46 44 -27 55 5 3 14 -1 21 -9 18 -22 51 -19 57 5 3 11 12
20 19 20 8 0 14 6 14 13 0 8 4 7 10 -3 8 -13 10 -12 10 4 0 11 5 16 13 13 7
-3 20 1 29 7 14 10 10 12 -23 12 -21 -1 -39 -4 -39 -8 0 -4 -15 -2 -32 3 -42
12 -37 13 -78 -23z m96 0 c4 -7 3 -8 -4 -4 -7 4 -12 4 -12 -1 -1 -19 -29 -43
-44 -37 -18 7 -21 29 -6 39 6 3 7 -1 4 -9 -4 -11 0 -16 10 -16 9 0 16 6 16 14
0 8 6 17 13 19 6 3 13 6 14 6 1 1 5 -4 9 -11z"/>
<path d="M1740 1129 c-22 -18 -22 -19 -3 -10 12 6 25 16 28 21 9 15 3 12 -25
-11z"/>
<path d="M1789 1136 c6 -7 23 -12 38 -10 16 1 34 2 41 3 6 1 12 4 12 9 0 4
-23 8 -50 9 -40 1 -49 -2 -41 -11z"/>
<path d="M1450 1130 c0 -5 5 -10 11 -10 5 0 7 5 4 10 -3 6 -8 10 -11 10 -2 0
-4 -4 -4 -10z"/>
<path d="M2038 1133 c-1 -5 -28 -20 -58 -36 -36 -17 -45 -25 -25 -20 36 8 95
42 95 54 0 11 -7 12 -12 2z"/>
<path d="M2073 1125 c0 -8 4 -15 9 -15 4 0 8 7 8 15 0 8 -4 15 -8 15 -5 0 -9
-7 -9 -15z"/>
<path d="M1915 1118 c-16 -5 -37 -12 -45 -15 -8 -4 -18 -5 -22 -5 -5 1 -8 -3
-8 -9 0 -5 -6 -7 -12 -3 -7 4 -10 4 -6 -1 9 -9 -9 -35 -24 -35 -6 0 -4 8 3 18
13 15 12 16 -4 3 -9 -8 -15 -16 -12 -19 8 -9 -79 -82 -97 -82 -10 0 -18 -4
-18 -9 0 -5 -16 -21 -36 -36 -29 -22 -38 -25 -45 -14 -11 19 -19 7 -12 -19 6
-26 21 -28 49 -7 10 8 27 15 36 15 9 0 40 22 70 48 91 82 153 127 202 146 35
13 44 21 35 27 -16 10 -15 10 -54 -3z m5 -18 c-8 -5 -19 -10 -25 -10 -5 0 -3
5 5 10 8 5 20 10 25 10 6 0 3 -5 -5 -10z m-250 -176 c0 -8 -5 -12 -10 -9 -6 4
-8 11 -5 16 9 14 15 11 15 -7z"/>
<path d="M2631 1117 c-8 -10 -7 -14 2 -14 8 0 14 6 14 14 0 7 -1 13 -2 13 -2
0 -8 -6 -14 -13z"/>
<path d="M80 1110 c0 -5 5 -10 11 -10 5 0 7 5 4 10 -3 6 -8 10 -11 10 -2 0 -4
-4 -4 -10z"/>
<path d="M126 1105 c4 -8 11 -15 16 -15 6 0 5 6 -2 15 -7 8 -14 15 -16 15 -2
0 -1 -7 2 -15z"/>
<path d="M1749 1103 c-13 -16 -12 -17 4 -4 16 13 21 21 13 21 -2 0 -10 -8 -17
-17z"/>
<path d="M180 1101 c8 -5 32 -12 53 -15 105 -19 294 -109 402 -192 26 -19 49
-33 51 -31 17 17 -185 149 -294 191 -34 14 -96 32 -138 40 -86 18 -95 19 -74
7z"/>
<path d="M2748 1092 c-16 -10 -28 -21 -28 -25 0 -5 14 1 30 13 17 12 30 23 30
26 0 5 0 5 -32 -14z"/>
<path d="M2325 1090 c-3 -6 1 -7 9 -4 18 7 21 14 7 14 -6 0 -13 -4 -16 -10z"/>
<path d="M1625 1060 c-10 -11 -13 -20 -7 -20 6 0 16 9 22 20 6 11 9 20 7 20
-2 0 -12 -9 -22 -20z"/>
<path d="M2264 1054 c-18 -14 -18 -15 4 -4 12 6 22 13 22 15 0 8 -5 6 -26 -11z"/>
<path d="M1128 1046 c-10 -7 -18 -22 -17 -32 0 -14 2 -15 6 -4 3 8 12 23 21
33 18 20 14 22 -10 3z"/>
<path d="M2975 1050 c-3 -5 -2 -10 4 -10 5 0 13 5 16 10 3 6 2 10 -4 10 -5 0
-13 -4 -16 -10z"/>
<path d="M620 1022 c0 -15 48 -112 56 -112 2 0 0 9 -6 20 -14 25 -15 25 56 -9
54 -26 242 -90 289 -98 14 -3 17 -1 9 7 -6 6 -18 13 -25 14 -8 2 -27 8 -44 15
-16 7 -68 26 -115 42 -123 42 -188 77 -205 107 -8 15 -14 21 -15 14z"/>
<path d="M2185 979 c-59 -45 -67 -57 -12 -18 42 29 65 50 55 49 -2 0 -21 -14
-43 -31z"/>
<path d="M2116 975 c-15 -59 -39 -105 -56 -105 -9 0 -25 -9 -35 -20 -18 -20
-18 -21 1 -15 19 7 19 6 0 -9 -11 -9 -26 -16 -34 -16 -7 0 -11 -4 -8 -9 3 -5
-1 -12 -10 -15 -8 -3 -39 -21 -67 -40 -29 -19 -81 -46 -117 -61 -36 -15 -73
-31 -84 -37 -10 -5 -29 -12 -41 -14 -13 -2 -54 -22 -91 -44 -38 -22 -74 -40
-81 -40 -23 0 -63 -23 -63 -37 0 -8 -5 -11 -10 -8 -6 4 -17 2 -24 -4 -30 -25
-141 -51 -225 -52 -317 -4 -333 -3 -357 29 -10 13 -19 29 -20 35 -1 7 -9 30
-19 52 -19 43 -19 44 -30 120 -12 78 -25 88 -19 15 7 -87 43 -205 74 -242 26
-31 26 -31 135 -32 161 -1 342 12 405 30 65 19 130 51 230 114 41 26 89 51
105 55 77 18 302 137 379 200 37 31 81 130 73 164 -2 10 -7 5 -11 -14z"/>
<path d="M2315 980 c-3 -6 1 -7 9 -4 18 7 21 14 7 14 -6 0 -13 -4 -16 -10z"/>
<path d="M2766 944 c-5 -13 -4 -14 7 -6 8 7 18 8 22 4 5 -4 5 -1 1 6 -10 17
-23 15 -30 -4z"/>
<path d="M1450 940 l-25 -8 25 -1 c14 0 32 4 40 9 13 9 13 10 0 9 -8 -1 -26
-5 -40 -9z"/>
<path d="M2315 940 c27 -12 43 -12 25 0 -8 5 -22 9 -30 9 -10 0 -8 -3 5 -9z"/>
<path d="M1050 929 c0 -5 5 -7 10 -4 6 3 10 8 10 11 0 2 -4 4 -10 4 -5 0 -10
-5 -10 -11z"/>
<path d="M1438 921 c-69 -10 -72 -23 -6 -19 35 2 60 8 63 15 2 7 1 12 -3 12
-4 -1 -28 -5 -54 -8z"/>
<path d="M1915 913 c-4 -10 -9 -30 -11 -45 -2 -14 -17 -53 -32 -86 -19 -39
-25 -59 -16 -55 8 3 14 13 14 24 0 10 9 24 20 32 11 8 17 16 14 19 -7 7 23 97
38 115 8 10 6 13 -5 13 -8 0 -18 -8 -22 -17z"/>
<path d="M2696 918 c-16 -9 -12 -14 35 -39 98 -53 100 -53 107 -42 4 5 17 15
30 22 12 6 22 16 22 22 0 6 -7 4 -15 -4 -24 -25 -72 -31 -91 -12 -10 9 -28 21
-41 26 -13 5 -22 13 -18 18 9 15 -9 20 -29 9z"/>
<path d="M440 909 c0 -5 5 -7 10 -4 6 3 10 8 10 11 0 2 -4 4 -10 4 -5 0 -10
-5 -10 -11z"/>
<path d="M1360 880 c-9 -6 -10 -10 -3 -10 6 0 15 5 18 10 8 12 4 12 -15 0z"/>
<path d="M2297 864 c-13 -13 -7 -23 13 -21 11 1 19 6 17 11 -4 13 -21 18 -30
10z"/>
<path d="M1306 841 c-4 -5 3 -7 14 -4 23 6 26 13 6 13 -8 0 -17 -4 -20 -9z"/>
<path d="M430 826 c0 -9 5 -16 10 -16 6 0 10 4 10 9 0 6 -4 13 -10 16 -5 3
-10 -1 -10 -9z"/>
<path d="M2578 813 c7 -3 16 -2 19 1 4 3 -2 6 -13 5 -11 0 -14 -3 -6 -6z"/>
<path d="M1083 795 c-9 -24 1 -27 15 -5 8 13 8 20 2 20 -6 0 -13 -7 -17 -15z"/>
<path d="M1125 791 c-7 -12 12 -24 24 -17 5 4 11 1 13 -5 4 -12 88 -24 88 -12
0 4 -10 9 -23 10 -34 3 -50 8 -74 21 -13 7 -24 8 -28 3z"/>
<path d="M2926 785 c4 -8 10 -15 15 -15 4 0 6 7 3 15 -4 8 -10 15 -15 15 -4 0
-6 -7 -3 -15z"/>
<path d="M2310 761 c-18 -14 -29 -17 -43 -10 -20 11 -60 2 -52 -11 3 -5 12 -7
20 -4 19 8 58 -15 51 -31 -5 -15 3 -27 15 -19 5 2 4 16 -1 30 -9 22 -7 27 9
31 11 3 22 11 25 19 7 18 6 18 -24 -5z"/>
<path d="M2740 757 c-30 -12 -61 -26 -69 -31 -18 -12 -208 -8 -249 5 -38 12
-57 3 -28 -13 18 -10 18 -11 -5 -25 l-24 -14 25 7 c14 4 95 10 180 14 85 4
166 12 180 18 14 6 21 11 16 11 -15 1 16 31 32 31 9 0 32 -15 51 -32 l35 -33
-33 43 c-18 23 -38 42 -44 41 -7 0 -37 -10 -67 -22z"/>
<path d="M1325 760 c-3 -5 -1 -10 4 -10 6 0 11 5 11 10 0 6 -2 10 -4 10 -3 0
-8 -4 -11 -10z"/>
<path d="M880 750 c0 -5 7 -10 16 -10 8 0 12 5 9 10 -3 6 -10 10 -16 10 -5 0
-9 -4 -9 -10z"/>
<path d="M1075 730 c-3 -6 1 -7 9 -4 18 7 21 14 7 14 -6 0 -13 -4 -16 -10z"/>
<path d="M1278 733 c6 -2 18 -2 25 0 6 3 1 5 -13 5 -14 0 -19 -2 -12 -5z"/>
<path d="M2981 725 c1 -19 18 -51 18 -35 0 8 -4 22 -9 30 -5 8 -9 11 -9 5z"/>
<path d="M1575 710 c-3 -5 -1 -10 4 -10 6 0 11 5 11 10 0 6 -2 10 -4 10 -3 0
-8 -4 -11 -10z"/>
<path d="M310 706 c0 -2 7 -6 15 -10 8 -3 15 -1 15 4 0 6 -7 10 -15 10 -8 0
-15 -2 -15 -4z"/>
<path d="M1175 700 c3 -5 8 -10 11 -10 2 0 4 5 4 10 0 6 -5 10 -11 10 -5 0 -7
-4 -4 -10z"/>
<path d="M2810 690 c0 -5 -7 -10 -15 -10 -24 0 -17 -24 10 -36 23 -11 24 -10
14 8 -7 14 -7 23 2 34 8 10 8 14 0 14 -6 0 -11 -4 -11 -10z"/>
<path d="M1566 681 c2 -2 -4 -10 -14 -17 -16 -12 -15 -13 6 -14 12 0 22 5 22
10 0 6 14 10 32 10 17 0 28 3 24 8 -4 4 -23 7 -41 7 -18 0 -32 -2 -29 -4z"/>
<path d="M2900 674 c0 -2 9 -8 20 -14 11 -6 20 -7 20 -2 0 6 -9 12 -20 15 -11
3 -20 3 -20 1z"/>
<path d="M1525 630 c-3 -5 3 -10 14 -10 12 0 21 5 21 10 0 6 -6 10 -14 10 -8
0 -18 -4 -21 -10z"/>
<path d="M1580 630 c0 -13 11 -13 30 0 12 8 11 10 -7 10 -13 0 -23 -4 -23 -10z"/>
<path d="M1520 593 c0 -12 3 -14 8 -7 4 7 16 14 27 17 15 4 14 5 -7 6 -21 1
-28 -4 -28 -16z"/>
<path d="M2326 564 c-8 -20 -3 -27 18 -22 12 2 13 6 2 21 -13 16 -14 16 -20 1z"/>
<path d="M2882 570 c5 -16 78 -28 78 -12 0 5 -11 7 -25 4 -14 -2 -33 2 -42 9
-14 12 -16 12 -11 -1z"/>
<path d="M2475 510 c3 -5 8 -10 11 -10 2 0 4 5 4 10 0 6 -5 10 -11 10 -5 0 -7
-4 -4 -10z"/>
<path d="M2380 505 c0 -4 60 -35 69 -35 8 0 -32 26 -51 33 -10 4 -18 5 -18 2z"/>
<path d="M2933 504 c-9 -4 -9 -11 -1 -30 15 -33 25 -30 24 6 -1 31 -2 32 -23
24z"/>
<path d="M694 477 c-11 -7 -37 -18 -57 -26 -20 -8 -37 -18 -37 -22 0 -5 29 3
65 16 36 14 68 25 71 25 3 0 2 5 -1 10 -7 12 -14 12 -41 -3z"/>
<path d="M2510 446 c28 -17 60 -21 60 -7 0 6 -8 9 -17 9 -10 -1 -29 2 -43 6
l-25 7 25 -15z"/>
<path d="M2650 440 c0 -5 16 -14 35 -20 19 -6 48 -25 64 -41 36 -36 72 -42 38
-6 -12 13 -24 22 -26 20 -2 -2 -11 3 -20 11 -22 19 -91 47 -91 36z"/>
<path d="M2275 363 c32 -17 127 -45 133 -38 7 7 -57 35 -82 35 -14 0 -28 5
-31 10 -3 6 -16 10 -28 10 -20 -1 -19 -3 8 -17z"/>
<path d="M906 348 c3 -5 10 -6 15 -3 13 9 11 12 -6 12 -8 0 -12 -4 -9 -9z"/>
<path d="M477 336 c-4 -9 -11 -14 -17 -11 -5 3 -10 1 -10 -4 0 -13 10 -14 29
-2 7 5 11 15 9 22 -3 9 -6 8 -11 -5z"/>
<path d="M2610 330 c-11 -7 -3 -10 30 -10 25 0 52 5 60 10 11 7 3 10 -30 10
-25 0 -52 -5 -60 -10z"/>
<path d="M410 320 c0 -5 7 -10 16 -10 8 0 12 5 9 10 -3 6 -10 10 -16 10 -5 0
-9 -4 -9 -10z"/>
<path d="M1901 320 c-8 -4 -24 -7 -37 -5 -13 1 -21 -2 -18 -6 7 -13 62 -11 69
2 10 15 2 20 -14 9z"/>
<path d="M1626 312 c-3 -5 1 -9 9 -9 8 0 12 4 9 9 -3 4 -7 8 -9 8 -2 0 -6 -4
-9 -8z"/>
<path d="M1300 290 c-13 -8 -12 -10 3 -10 9 0 17 5 17 10 0 12 -1 12 -20 0z"/>
<path d="M1255 268 c-4 -10 -4 -21 -1 -27 3 -5 1 -11 -6 -13 -8 -3 -9 -6 -1
-11 5 -3 19 1 29 9 10 9 13 12 5 8 -10 -5 -13 -3 -9 8 4 8 2 21 -2 29 -7 11
-10 10 -15 -3z"/>
<path d="M1360 265 c-8 -10 -16 -12 -19 -6 -4 6 -12 2 -19 -9 -10 -17 -10 -20
7 -17 20 3 56 35 49 43 -3 2 -11 -3 -18 -11z"/>
<path d="M2358 273 c7 -3 16 -2 19 1 4 3 -2 6 -13 5 -11 0 -14 -3 -6 -6z"/>
<path d="M2520 268 c0 -6 9 -8 21 -5 12 3 22 0 26 -9 3 -8 10 -11 15 -8 6 4
13 2 17 -3 4 -7 28 -7 71 -1 36 5 73 7 83 4 9 -2 15 0 11 5 -6 11 9 12 20 2
10 -10 106 -13 106 -3 0 18 -176 30 -204 13 -12 -8 -66 -7 -86 1 -27 11 -80
14 -80 4z"/>
<path d="M620 260 c-12 -8 -11 -10 8 -10 12 0 22 5 22 10 0 13 -11 13 -30 0z"/>
<path d="M1430 250 c0 -5 7 -10 16 -10 8 0 12 5 9 10 -3 6 -10 10 -16 10 -5 0
-9 -4 -9 -10z"/>
<path d="M2900 250 c0 -5 7 -10 15 -10 8 0 15 5 15 10 0 6 -7 10 -15 10 -8 0
-15 -4 -15 -10z"/>
<path d="M1413 225 c1 -40 -9 -55 -37 -55 -20 0 -35 -17 -52 -60 -1 -3 3 -13
10 -22 12 -16 13 -14 14 12 1 39 6 46 47 66 36 17 38 22 25 64 -8 24 -8 24 -7
-5z"/>
<path d="M1495 160 c-1 -43 8 -51 23 -22 10 18 -1 62 -15 62 -4 0 -8 -18 -8
-40z"/>
<path d="M1425 140 c-3 -5 1 -10 10 -10 9 0 13 5 10 10 -3 6 -8 10 -10 10 -2
0 -7 -4 -10 -10z"/>
<path d="M1255 98 c6 -16 4 -20 -8 -15 -9 3 -18 -1 -21 -9 -9 -24 -7 -54 4
-54 5 0 7 7 4 15 -4 9 0 15 9 15 8 0 18 -6 20 -12 3 -7 6 -5 6 6 1 10 9 25 19
32 16 13 15 14 -6 20 -18 5 -20 9 -10 15 10 7 9 9 -5 9 -14 0 -17 -5 -12 -22z"/>
<path d="M860 80 c0 -5 7 -10 16 -10 8 0 12 5 9 10 -3 6 -10 10 -16 10 -5 0
-9 -4 -9 -10z"/>
<path d="M1490 75 c-14 -17 -35 -21 -25 -5 3 6 1 10 -4 10 -11 0 -15 -13 -12
-39 2 -8 -2 -10 -10 -5 -8 4 -10 3 -5 -5 5 -8 13 -7 28 3 11 8 27 12 36 9 12
-5 14 -2 8 12 -4 11 -2 22 6 27 8 5 9 8 2 8 -6 0 -17 -7 -24 -15z"/>
<path d="M1745 80 c-3 -6 1 -7 9 -4 18 7 21 14 7 14 -6 0 -13 -4 -16 -10z"/>
<path d="M810 70 c0 -6 7 -10 15 -10 8 0 15 2 15 4 0 2 -7 6 -15 10 -8 3 -15
1 -15 -4z"/>
<path d="M2985 70 c3 -5 8 -10 11 -10 2 0 4 5 4 10 0 6 -5 10 -11 10 -5 0 -7
-4 -4 -10z"/>
<path d="M290 40 c0 -5 7 -10 15 -10 8 0 15 5 15 10 0 6 -7 10 -15 10 -8 0
-15 -4 -15 -10z"/>
</g>
</svg>
